PathFileType        4      (X/Y/Z)      C:\Users\pc\Desktop\IMUTRC\Sujet_05\Sujet_05_velo_80.trc         
DataRate	CameraRate	NumFrames	NumMarkers	Units	OrigDataRate	OrigDataStartFrame	OrigNumFrames
60.0	60.0	4	64	mm	60.0	743	990
Frame#	Time	pHipOrigin			pRightASI			pLeftASI			pRightCSI			pLeftCSI			pRightIschialTub			pLeftIschialTub			pSacrum			pL5SpinalProcess			pL3SpinalProcess			pT12SpinalProcess			pIJ			pT4SpinalProcess			pT8SpinalProcess			pPX			pC7SpinalProcess			pTopOfHead			pRightAuricularis			pLeftAuricularis			pBackOfHead			pRightAcromion			pLeftAcromion			pRightArmLatEpicondyle			pRightArmMedEpicondyle			pLeftArmLatEpicondyle			pLeftArmMedEpicondyle			pRightUlnarStyloid			pRightRadialStyloid			pRightOlecranon			pLeftUlnarStyloid			pLeftRadialStyloid			pLeftOlecranon			pRightTopOfHand			pRightPinky			pRightBallHand			pLeftTopOfHand			pLeftPinky			pLeftBallHand			pRightGreaterTrochanter			pRightKneeLatEpicondyle			pRightKneeMedEpicondyle			pRightPatella			pLeftGreaterTrochanter			pLeftKneeLatEpicondyle			pLeftKneeMedEpicondyle			pLeftPatella			pRightTibialTub			pRightLatMalleolus			pRightMedMalleolus			pLeftTibialTub			pLeftLatMalleolus			pLeftMedMalleolus			pRightHeelFoot			pRightFirstMetatarsal			pRightFifthMetatarsal			pRightPivotFoot			pRightHeelCenter			pRightToe			pLeftHeelFoot			pLeftFirstMetatarsal			pLeftFifthMetatarsal			pLeftPivotFoot			pLeftHeelCenter			pLeftToe			
		X1	Y1	Z1	X2	Y2	Z2	X3	Y3	Z3	X4	Y4	Z4	X5	Y5	Z5	X6	Y6	Z6	X7	Y7	Z7	X8	Y8	Z8	X9	Y9	Z9	X10	Y10	Z10	X11	Y11	Z11	X12	Y12	Z12	X13	Y13	Z13	X14	Y14	Z14	X15	Y15	Z15	X16	Y16	Z16	X17	Y17	Z17	X18	Y18	Z18	X19	Y19	Z19	X20	Y20	Z20	X21	Y21	Z21	X22	Y22	Z22	X23	Y23	Z23	X24	Y24	Z24	X25	Y25	Z25	X26	Y26	Z26	X27	Y27	Z27	X28	Y28	Z28	X29	Y29	Z29	X30	Y30	Z30	X31	Y31	Z31	X32	Y32	Z32	X33	Y33	Z33	X34	Y34	Z34	X35	Y35	Z35	X36	Y36	Z36	X37	Y37	Z37	X38	Y38	Z38	X39	Y39	Z39	X40	Y40	Z40	X41	Y41	Z41	X42	Y42	Z42	X43	Y43	Z43	X44	Y44	Z44	X45	Y45	Z45	X46	Y46	Z46	X47	Y47	Z47	X48	Y48	Z48	X49	Y49	Z49	X50	Y50	Z50	X51	Y51	Z51	X52	Y52	Z52	X53	Y53	Z53	X54	Y54	Z54	X55	Y55	Z55	X56	Y56	Z56	X57	Y57	Z57	X58	Y58	Z58	X59	Y59	Z59	X60	Y60	Z60	X61	Y61	Z61	X62	Y62	Z62	X63	Y63	Z63	X64	Y64	Z64	
743	12.367	0.0	1249.99512	7.654012613289058E-14	75.12143000000002	1332.59392	124.91257000000009	47.12478999999999	1354.04063	-122.53603999999991	30.836880000000008	1395.77476	114.13125000000008	7.593289999999994	1413.62769	-91.64118999999991	-45.3279	1191.74124	52.573410000000074	-56.97868	1200.6677	-50.31280999999993	-62.13748	1268.48566	8.636650000000081	-27.64886	1368.82146	11.592810000000085	28.05461	1475.35942	11.824670000000088	86.07664	1568.85546	9.969820000000091	346.33531	1601.43127	-0.4637099999999232	231.50849	1705.5927	1.8548500000000903	157.37244	1651.04851	5.970300000000091	248.2601	1522.77403	5.2167700000000785	279.50274	1739.55964	-0.8114999999999106	552.39757	1811.31916	-20.519279999999924	461.97362	1768.71557	60.80431000000008	451.54009	1763.78862	-85.14921999999991	432.23805	1818.27485	-12.172449999999914	289.35663	1667.56827	197.83136000000007	275.67711	1665.77138	-193.0783099999999	355.84141	1409.68613	185.65891000000005	338.74201	1404.99104	131.11472000000006	375.83902	1428.06074	-169.02321999999995	355.60956	1420.58338	-115.87016999999994	451.01841	1190.81381	185.60095000000007	493.85386	1215.62243	191.80310000000006	323.61339	1400.52781	157.02466000000007	479.01506	1212.55034	-168.44357999999994	520.11158	1239.21381	-177.77579999999995	342.68357	1416.46793	-139.51950999999994	499.94009	1132.2701	351.72596	474.31997	1127.9228	269.41699	479.71063	1170.00471	210.58346000000006	596.2184	1159.68711	-309.58609	538.54415	1152.55753	-245.82560999999998	516.80763	1193.48016	-189.94824999999994	19.24407000000001	1205.94243	145.25795000000008	194.99112	893.51611	95.46682000000004	203.45388	902.96425	26.141790000000043	232.43591	919.19419	65.32550000000005	13.447659999999992	1242.74962	-150.06896999999992	360.24668	1139.34172	-150.35878999999997	368.18776	1146.4713	-80.68597999999996	372.99878	1181.36567	-118.07280999999996	243.44909	861.51994	59.239280000000036	112.62418	508.80859	82.88862000000003	112.914	509.79398	23.185630000000025	396.41626	1103.05621	-121.95639999999996	207.33747	777.93576	-146.30130999999994	216.20597	773.82031	-87.40980999999996	33.79305	460.29266	51.29820000000003	168.32765	376.41866	0.6955700000000128	170.994	369.28908	78.77317000000001	188.20933	360.82632	36.92311000000001	68.04982	441.51231	48.40000000000002	255.73747	317.00549	30.662990000000004	139.11376	717.65312	-116.79759999999997	284.13986	646.99493	-75.93292999999997	285.06729	645.89361	-154.35831	304.48525	636.56139	-113.72549999999997	175.39927	702.93025	-116.15998999999996	376.76644	600.85553	-112.39232999999999	
744	12.383	0.0	1249.99512	7.654012613289058E-14	75.12143000000002	1333.52135	124.27496000000008	47.18274999999999	1353.17117	-123.28956999999991	30.89485000000001	1396.58625	113.08790000000009	7.593289999999994	1412.93212	-92.85843999999992	-45.3279	1192.14698	52.97916000000007	-56.97868	1200.31992	-49.96502999999993	-62.13748	1268.54363	8.462750000000081	-27.64886	1368.93739	10.781320000000084	28.2285	1475.35942	10.781320000000088	86.42443	1568.7975	9.04239000000009	346.74105	1600.79366	-0.34777999999992315	232.14609	1705.24491	1.6809600000000902	157.89412	1650.87462	5.390660000000091	248.49196	1522.36828	4.637130000000078	280.31423	1739.09593	-0.6375999999999107	553.44092	1810.10191	-19.707779999999925	462.78512	1767.73018	61.44191000000008	452.52548	1762.91916	-84.51160999999992	433.28141	1817.40539	-11.534849999999915	289.70441	1667.10456	197.54154000000008	277.01028	1665.88731	-193.2521999999999	356.65291	1409.39631	185.42705000000007	339.49555	1404.64326	130.88287000000005	376.94033	1428.11871	-169.31303999999994	356.59495	1420.58338	-116.21795999999995	452.06177	1190.69788	185.65891000000005	494.89721	1215.56447	191.91903000000005	324.42489	1400.18002	156.73484000000005	480.05841	1212.55034	-168.50154999999995	521.15493	1239.21381	-177.77579999999995	343.66896	1416.52589	-139.86729999999994	500.92547	1132.21214	351.84189	475.36332	1127.86483	269.53292	480.75398	1169.94675	210.69939000000005	597.37768	1159.68711	-309.47016	539.64547	1152.55753	-245.76764999999997	517.90895	1193.48016	-189.94824999999994	20.46132000000001	1207.27561	145.4898100000001	203.22202	898.79084	96.79999000000004	211.04717	907.8912	27.417000000000044	239.85531	925.10652	66.31089000000004	13.157839999999991	1240.72087	-149.9530399999999	358.73962	1133.48735	-149.43136999999996	366.97051	1141.66028	-79.93244999999996	372.07135	1175.85908	-117.89890999999996	248.95567	864.53407	60.050770000000036	98.8867	519.5899	83.52622000000002	98.82874	520.74919	23.881200000000025	397.40165	1099.17262	-120.79711999999996	223.91519	765.47348	-144.73627999999994	232.55184	762.0536	-85.84477999999997	17.679040000000004	474.72572	53.15305000000003	147.75041	384.47566	1.8548500000000145	150.93843	377.80979	79.93245000000002	167.2843	368.30369	38.02443000000002	51.00838	454.38033	50.08095000000003	232.66777	321.41076	31.416520000000006	159.40119	701.19133	-115.46441999999998	308.36884	639.69145	-73.84621999999997	309.70201	638.59014	-152.27161	329.52573	630.53313	-111.52286999999997	196.55615	688.72905	-114.65292999999997	403.83566	599.46439	-109.72597999999999	
745	12.4	0.0	1249.99512	7.654012613289058E-14	74.94754000000002	1334.68063	123.57939000000009	47.18274999999999	1352.12781	-124.15902999999992	30.662990000000008	1397.62961	111.81269000000009	7.535329999999994	1412.12062	-94.30753999999992	-45.3279	1192.55273	53.44287000000007	-56.92071	1199.79824	-49.55927999999993	-62.19544	1268.60159	8.288860000000081	-27.70682	1368.99536	9.795930000000086	28.17054	1475.41738	9.564070000000088	86.48239	1568.7975	7.941080000000091	346.91495	1600.44588	-0.2898199999999233	232.49388	1705.07102	1.56503000000009	158.12598	1650.81665	4.695090000000092	248.434	1522.13642	3.999520000000078	280.66202	1738.86407	-0.46370999999991075	554.02056	1809.29042	-18.490539999999925	463.01697	1767.09257	62.36934000000008	453.22105	1762.39748	-83.58418999999992	433.86105	1816.88371	-10.665389999999915	289.41459	1666.81474	197.2517200000001	277.99567	1666.29306	-193.48405999999991	357.05866	1409.33835	185.13723000000005	339.95926	1404.46937	130.59304000000006	377.86776	1428.46649	-169.66082999999995	357.29051	1420.8732	-116.68166999999994	452.93123	1190.81381	185.48502000000005	495.70871	1215.79632	191.80310000000006	324.8886	1400.0641	156.38706000000005	480.86991	1212.89812	-168.79136999999994	522.0244	1239.56159	-178.06561999999994	344.48046	1416.87368	-140.27303999999995	501.8529	1132.44399	351.668	476.23278	1128.03873	269.35902	481.62344	1170.12064	210.52549000000005	598.30511	1160.09286	-309.75998	540.51493	1152.90531	-246.05746999999997	518.72044	1193.82794	-190.23806999999994	21.79449000000001	1208.8986	145.77963000000008	213.30777	905.57263	98.30706000000005	220.37939	914.38317	28.750180000000043	248.95567	932.69982	67.29628000000004	12.52023999999999	1238.17045	-149.8371199999999	356.07327	1124.44495	-149.14154999999997	364.76788	1133.77717	-79.87448999999995	370.33243	1167.16447	-118.47854999999996	256.02729	869.46102	60.920240000000035	87.58371	533.09553	83.81604000000003	87.11999	534.54463	24.171020000000023	396.93794	1092.2749	-120.50729999999996	238.5801	750.98246	-143.28717999999998	247.33268	748.25815	-84.27974999999998	4.115450000000004	491.99901	54.48622000000003	129.43376	395.48884	2.6663500000000164	133.02754	389.22872	80.80191000000002	148.56191	378.67926	38.777960000000014	36.4594	470.14655	51.24024000000003	211.62681	328.77219	31.880240000000008	177.6019	683.3384	-114.18920999999997	329.52573	630.06942	-71.99136999999997	331.14872	628.91014	-150.35879	351.26225	621.95445	-109.55208999999999	215.33651	672.96283	-113.20381999999996	427.25314	594.82726	-107.52334999999998	
746	12.417	0.0	1249.99512	7.654012613289058E-14	74.59976000000002	1336.12973	122.82586000000009	47.06681999999999	1350.91057	-125.14441999999991	30.19928000000001	1398.84685	110.30562000000009	7.303469999999994	1411.13523	-95.98849999999992	-45.26994	1193.01645	54.02251000000007	-56.68886	1199.16064	-49.09556999999993	-62.25341	1268.54363	7.999040000000081	-27.99664	1369.05332	8.578680000000086	27.82275	1475.53331	8.172930000000088	86.1346	1568.91343	6.6079000000000905	346.56716	1600.50384	-0.17388999999992322	232.20406	1705.12899	1.3331700000000901	157.77819	1650.93258	3.8835900000000914	248.08621	1522.19439	3.245990000000078	280.43016	1738.92204	-0.2898199999999107	553.9626	1809.17449	-16.635689999999926	462.43733	1767.03461	63.64455000000008	453.51087	1762.33952	-82.36693999999991	433.74512	1816.82574	-9.564069999999914	288.25531	1666.64084	196.9619000000001	278.40142	1667.22049	-193.83183999999991	356.8268	1409.51224	184.78945000000004	339.90129	1404.64326	130.24526000000006	378.4474	1429.39391	-170.00860999999995	357.58033	1421.56877	-117.14537999999995	453.51087	1191.33549	185.13723000000005	496.17242	1216.43393	191.45532000000006	324.77267	1400.18002	156.09723000000005	481.39158	1213.70962	-169.37100999999996	522.54607	1240.43105	-178.58728999999994	344.94417	1417.62721	-140.73675999999995	502.60643	1133.02364	351.26225	476.98631	1128.61837	269.01124	482.20308	1170.70028	210.11975000000007	598.71086	1161.25214	-310.51351	541.03661	1153.94866	-246.81099999999998	519.24212	1194.6974	-190.87567999999993	23.35952000000001	1210.92734	146.06945000000007	225.1904	914.09335	99.87209000000004	231.45052	922.5561	30.199280000000044	259.62106	942.20592	68.39760000000004	11.47688999999999	1235.09836	-149.6632199999999	351.89986	1112.33046	-149.72118999999998	361.57986	1122.99585	-80.74394999999996	367.60812	1155.3398	-120.15950999999995	264.77986	876.35874	61.84766000000004	78.7152	549.26751	83.35233000000002	78.13556	551.12236	23.76527000000003	395.19901	1082.36304	-121.37675999999996	251.56405	734.52067	-142.12788999999998	260.78034	732.31803	-83.17843999999997	-6.607899999999996	512.57625	54.89197000000003	113.49364	409.748	2.956170000000018	117.31927	403.89363	81.09173000000001	132.04215	392.30081	39.06778000000001	24.576760000000004	489.15877	51.58802000000003	192.55663	339.37962	32.11209000000001	193.59999	664.50007	-112.97196999999997	347.61052	617.66511	-70.65819999999997	349.29147	616.33193	-149.08358	369.69483	610.36164	-108.21890999999998	231.74034	655.63157	-111.98657999999998	446.845	586.30655	-106.19016999999998	
